<mxfile host="app.diagrams.net" modified="2023-07-19T11:31:13.535Z" agent="Mozilla/5.0 (Windows NT 10.0; Win64; x64) AppleWebKit/537.36 (KHTML, like Gecko) Chrome/114.0.0.0 Safari/537.36" etag="mIc2GMME_LxSASKyRDoD" version="21.6.2" type="github">
  <diagram name="第 1 页" id="bzSTp0hu7ScCsiOYJfGb">
    <mxGraphModel dx="1509" dy="782" grid="1" gridSize="10" guides="1" tooltips="1" connect="1" arrows="1" fold="1" page="1" pageScale="1" pageWidth="827" pageHeight="1169" math="0" shadow="0">
      <root>
        <mxCell id="0" />
        <mxCell id="1" parent="0" />
        <mxCell id="cIi6qRAgpGbRA1p_nFkp-1" value="业务数据" style="rounded=0;whiteSpace=wrap;html=1;horizontal=1;align=left;verticalAlign=top;fillColor=#d5e8d4;strokeColor=#82b366;" vertex="1" diagramName="Rectangle" diagramCategory="general" parent="1">
          <mxGeometry x="40" y="40" width="160" height="160" as="geometry" />
        </mxCell>
        <mxCell id="cIi6qRAgpGbRA1p_nFkp-2" value="融资" style="rounded=0;whiteSpace=wrap;html=1;align=left;" vertex="1" diagramName="Rectangle" diagramCategory="general" parent="1">
          <mxGeometry x="50" y="80" width="40" height="40" as="geometry" />
        </mxCell>
        <mxCell id="cIi6qRAgpGbRA1p_nFkp-3" value="账户" style="rounded=0;whiteSpace=wrap;html=1;align=left;" vertex="1" diagramName="Rectangle" diagramCategory="general" parent="1">
          <mxGeometry x="100" y="80" width="40" height="40" as="geometry" />
        </mxCell>
        <mxCell id="cIi6qRAgpGbRA1p_nFkp-4" value="国际结算" style="rounded=0;whiteSpace=wrap;html=1;align=left;" vertex="1" diagramName="Rectangle" diagramCategory="general" parent="1">
          <mxGeometry x="150" y="80" width="40" height="40" as="geometry" />
        </mxCell>
        <mxCell id="cIi6qRAgpGbRA1p_nFkp-5" value="KYC" style="rounded=0;whiteSpace=wrap;html=1;align=left;" vertex="1" diagramName="Rectangle" diagramCategory="general" parent="1">
          <mxGeometry x="50" y="130" width="40" height="40" as="geometry" />
        </mxCell>
        <mxCell id="cIi6qRAgpGbRA1p_nFkp-6" value="SCRM" style="rounded=0;whiteSpace=wrap;html=1;align=left;" vertex="1" diagramName="Rectangle" diagramCategory="general" parent="1">
          <mxGeometry x="100" y="130" width="40" height="40" as="geometry" />
        </mxCell>
        <mxCell id="cIi6qRAgpGbRA1p_nFkp-7" value="文本数据" style="rounded=0;whiteSpace=wrap;html=1;horizontal=1;align=left;verticalAlign=top;fillColor=#f8cecc;strokeColor=#b85450;" vertex="1" diagramName="Rectangle" diagramCategory="general" parent="1">
          <mxGeometry x="40" y="240" width="160" height="160" as="geometry" />
        </mxCell>
        <mxCell id="cIi6qRAgpGbRA1p_nFkp-8" value="Word" style="rounded=0;whiteSpace=wrap;html=1;align=left;" vertex="1" diagramName="Rectangle" diagramCategory="general" parent="1">
          <mxGeometry x="50" y="280" width="40" height="40" as="geometry" />
        </mxCell>
        <mxCell id="cIi6qRAgpGbRA1p_nFkp-9" value="Excel" style="rounded=0;whiteSpace=wrap;html=1;align=left;" vertex="1" diagramName="Rectangle" diagramCategory="general" parent="1">
          <mxGeometry x="100" y="280" width="40" height="40" as="geometry" />
        </mxCell>
        <mxCell id="cIi6qRAgpGbRA1p_nFkp-10" value="TXT" style="rounded=0;whiteSpace=wrap;html=1;align=left;" vertex="1" diagramName="Rectangle" diagramCategory="general" parent="1">
          <mxGeometry x="150" y="280" width="40" height="40" as="geometry" />
        </mxCell>
        <mxCell id="cIi6qRAgpGbRA1p_nFkp-11" value="PDF" style="rounded=0;whiteSpace=wrap;html=1;align=left;" vertex="1" diagramName="Rectangle" diagramCategory="general" parent="1">
          <mxGeometry x="50" y="330" width="40" height="40" as="geometry" />
        </mxCell>
        <mxCell id="cIi6qRAgpGbRA1p_nFkp-12" value="JPG" style="rounded=0;whiteSpace=wrap;html=1;align=left;" vertex="1" diagramName="Rectangle" diagramCategory="general" parent="1">
          <mxGeometry x="100" y="330" width="40" height="40" as="geometry" />
        </mxCell>
        <mxCell id="cIi6qRAgpGbRA1p_nFkp-13" value="... ..." style="rounded=0;whiteSpace=wrap;html=1;align=left;" vertex="1" diagramName="Rectangle" diagramCategory="general" parent="1">
          <mxGeometry x="150" y="130" width="40" height="40" as="geometry" />
        </mxCell>
        <mxCell id="cIi6qRAgpGbRA1p_nFkp-14" value="... ..." style="rounded=0;whiteSpace=wrap;html=1;align=left;" vertex="1" diagramName="Rectangle" diagramCategory="general" parent="1">
          <mxGeometry x="150" y="330" width="40" height="40" as="geometry" />
        </mxCell>
        <mxCell id="cIi6qRAgpGbRA1p_nFkp-15" value="其他数据" style="rounded=0;whiteSpace=wrap;html=1;horizontal=1;align=left;verticalAlign=top;fillColor=#fff2cc;strokeColor=#d6b656;" vertex="1" diagramName="Rectangle" diagramCategory="general" parent="1">
          <mxGeometry x="40" y="440" width="160" height="160" as="geometry" />
        </mxCell>
        <mxCell id="cIi6qRAgpGbRA1p_nFkp-16" value="数据集" style="rounded=0;whiteSpace=wrap;html=1;align=left;" vertex="1" diagramName="Rectangle" diagramCategory="general" parent="1">
          <mxGeometry x="50" y="480" width="40" height="40" as="geometry" />
        </mxCell>
        <mxCell id="cIi6qRAgpGbRA1p_nFkp-17" value="ETL" style="rounded=0;whiteSpace=wrap;html=1;align=left;" vertex="1" diagramName="Rectangle" diagramCategory="general" parent="1">
          <mxGeometry x="100" y="480" width="40" height="40" as="geometry" />
        </mxCell>
        <mxCell id="cIi6qRAgpGbRA1p_nFkp-18" value="... ..." style="rounded=0;whiteSpace=wrap;html=1;align=left;" vertex="1" diagramName="Rectangle" diagramCategory="general" parent="1">
          <mxGeometry x="150" y="480" width="40" height="40" as="geometry" />
        </mxCell>
        <mxCell id="cIi6qRAgpGbRA1p_nFkp-19" value="" style="html=1;shadow=0;dashed=0;align=center;verticalAlign=middle;shape=mxgraph.arrows2.arrow;dy=0.6;dx=40;notch=0;fillColor=#000000;" vertex="1" parent="1">
          <mxGeometry x="240" y="292.5" width="50" height="55" as="geometry" />
        </mxCell>
        <mxCell id="cIi6qRAgpGbRA1p_nFkp-20" value="数据加载" style="ellipse;shape=cloud;whiteSpace=wrap;html=1;fillColor=#dae8fc;gradientColor=#7ea6e0;strokeColor=#6c8ebf;" vertex="1" parent="1">
          <mxGeometry x="320" y="190" width="110" height="90" as="geometry" />
        </mxCell>
        <mxCell id="cIi6qRAgpGbRA1p_nFkp-21" value="数据转换" style="sketch=0;html=1;verticalAlign=top;labelPosition=center;verticalLabelPosition=bottom;align=center;spacingTop=-6;fontSize=11;fontStyle=1;fontColor=#999999;shape=image;aspect=fixed;imageAspect=0;image=data:image/svg+xml,PHN2ZyB4bWxucz0iaHR0cDovL3d3dy53My5vcmcvMjAwMC9zdmciIGlkPSJzdmczNjAwOCIgdmVyc2lvbj0iMS4xIiB2aWV3Qm94PSIwIDAgMTIxLjI1MDg4IDEwMC4wNjkyMyIgaGVpZ2h0PSIxMDAuMDY5MjNtbSIgd2lkdGg9IjEyMS4yNTA4OG1tIj4mI3hhOyAgJiN4YTsgIDxkZWZzIGlkPSJkZWZzMzYwMDUiLz4mI3hhOyAgPGcgdHJhbnNmb3JtPSJ0cmFuc2xhdGUoLTQ2LjIyMTU4LC05OC4zMzc4OCkiIGlkPSJsYXllcjEiPiYjeGE7ICAgIDxwYXRoIGQ9Im0gNzkuNjMyOTE4LDE0Ni45MDY4OSA2Ljc2MTM0NSw2LjY3NDAxIC0xNC4xNjk0MiwxNC4yODQ0IGggNDcuMDI4OTA3IHYgOS41MDAyIEggNzIuMjI0ODQzIGwgMTQuMjA4NjkyLDE0LjMzNjU5IC02LjczMDMzOSw2LjcwNTAyIC0yNS41NjYzOTQsLTI1LjY2NDA3IHogbSA2Mi4zNDM0MzIsLTIzLjcxOTU4IC02Ljc2MTM1LDYuNjc0MDEgMTQuMTY5NDIsMTQuMjg0NCBoIC00Ny4wMjg5MSB2IDkuNTAwMTkgaCA0Ny4wMjg5MSBsIC0xNC4yMDg2OSwxNC4zMzY2IDYuNzMwMzMsNi43MDUwMiAyNS41NjY0LC0yNS42NjQwNyB6IiBzdHlsZT0iY29sb3I6IzAwMDAwMDtvcGFjaXR5OjE7ZmlsbDojNDI4NWY0O2ZpbGwtb3BhY2l0eToxO3N0cm9rZS13aWR0aDoxOy1pbmtzY2FwZS1zdHJva2U6bm9uZSIgaWQ9InBhdGgzNjE0Mi02Ii8+JiN4YTsgICAgPHBhdGggaWQ9InBhdGgzNjE0NiIgZD0ibSAxMDUuMzM1OTQsOTguMzM3ODkxIGMgLTExLjEyNjE1NywtMC4wMDg1IC0xOS43MDYxNTEsNC45OTk5MjkgLTI1LjQ3ODUxOCwxMS4xNTQyOTkgLTQuODYwMjQ5LDUuMTgxODkgLTcuODUwMDUzLDExLjAzNjc3IC05LjY2MDE1NiwxNS45OTIxOSAtNy45MTYyNCwxLjUyOTA1IC0xNC45NzI2NTksNS44MzI0NCAtMTkuMDk5NjEsMTIuMTAxNTYgbCAtMC4wODIwMywwLjEyNSAtMC4wNzQyMiwwLjEyODkgYyAtMy44NTQxNTcsNi43NDA3NCAtNS4wNjQ5NTksMTIuNDUwODYgLTQuNjM4NjcyLDE3LjI5MTAyIDAuMjM0MDk5LDIuNjU4MDIgMC44OTI4Nyw0Ljk0NSAxLjYyNTExOCw2Ljk0OTk5IGwgNy45ODk2ODcsLTYuNjU1NTggYyAtMC4wNjcxMiwtMC4zNzM1IC0wLjExODQ2OCwtMC43NDg2NSAtMC4xNTE5MTQsLTEuMTI4NCAtMC4yNDI0LC0yLjc1MjI5IDAuMjUzNjU4LC02LjExNTY3IDMuMzMwMDc4LC0xMS41NTY2NCAyLjgwMDQzMiwtNC4xODk2NSA4Ljg1Mjc1NiwtNy44NjkzMyAxNS4xMDM1MTYsLTguNDIxODcgbCAzLjIwODk4NCwtMC4yODMyIDAuOTIzODI4LC0zLjA4NTk0IGMgMS4yNTQ5ODEsLTQuMTkwMDIgNC4wNDA3NTksLTEwLjI1NDYyIDguNDUzMTI1LC0xNC45NTg5OSA0LjQxMjM2NiwtNC43MDQzNiAxMC4xNzYxMywtOC4xNTg3NSAxOC41NTA3ODQsLTguMTUyMzQgeiIgc3R5bGU9ImNvbG9yOiMwMDAwMDA7b3BhY2l0eToxO2ZpbGw6I2FlY2JmYTtmaWxsLW9wYWNpdHk6MTstaW5rc2NhcGUtc3Ryb2tlOm5vbmUiLz4mI3hhOyAgICA8cGF0aCBpZD0icGF0aDM2MTQ4IiBkPSJtIDEwNS4zMzU5NCw5OC4zMzc4OTEgdiA5LjQ5OTk5OSBjIDkuNDA2OTksMCAxNi40NDYyOSwzLjY2MzUyIDIzLjU2OTA1LDEzLjkzMDExIGwgNi45OTQyOCwtNi41MzY0NSBDIDEyNy42MDIxOCwxMDMuOTc3ODYgMTE3LjE5MzcxLDk4LjMzNzg5MSAxMDUuMzM1OTQsOTguMzM3ODkxIFoiIHN0eWxlPSJjb2xvcjojMDAwMDAwO29wYWNpdHk6MTtmaWxsOiM2NjlkZjY7ZmlsbC1vcGFjaXR5OjE7LWlua3NjYXBlLXN0cm9rZTpub25lIi8+JiN4YTsgIDwvZz4mI3hhOzwvc3ZnPg==;" vertex="1" parent="1">
          <mxGeometry x="320" y="360" width="110" height="91.67" as="geometry" />
        </mxCell>
        <mxCell id="cIi6qRAgpGbRA1p_nFkp-22" value="" style="html=1;shadow=0;dashed=0;align=center;verticalAlign=middle;shape=mxgraph.arrows2.arrow;dy=0.6;dx=40;notch=0;fillColor=#000000;" vertex="1" parent="1">
          <mxGeometry x="480" y="292.5" width="50" height="55" as="geometry" />
        </mxCell>
        <mxCell id="cIi6qRAgpGbRA1p_nFkp-23" value="" style="html=1;shadow=0;dashed=0;align=center;verticalAlign=middle;shape=mxgraph.arrows2.arrow;dy=0.6;dx=40;notch=0;fillColor=#000000;" vertex="1" parent="1">
          <mxGeometry x="680" y="292.5" width="50" height="55" as="geometry" />
        </mxCell>
        <mxCell id="cIi6qRAgpGbRA1p_nFkp-24" value="结果存储" style="rounded=1;whiteSpace=wrap;html=1;" vertex="1" parent="1">
          <mxGeometry x="540" y="288" width="120" height="60" as="geometry" />
        </mxCell>
        <mxCell id="cIi6qRAgpGbRA1p_nFkp-25" value="仪表盘/BI应用" style="rounded=1;whiteSpace=wrap;html=1;fillColor=#dae8fc;gradientColor=#7ea6e0;strokeColor=#6c8ebf;" vertex="1" parent="1">
          <mxGeometry x="760" y="50" width="120" height="60" as="geometry" />
        </mxCell>
        <mxCell id="cIi6qRAgpGbRA1p_nFkp-26" value="报表" style="rounded=1;whiteSpace=wrap;html=1;fillColor=#dae8fc;gradientColor=#7ea6e0;strokeColor=#6c8ebf;" vertex="1" parent="1">
          <mxGeometry x="760" y="170" width="120" height="60" as="geometry" />
        </mxCell>
        <mxCell id="cIi6qRAgpGbRA1p_nFkp-27" value="服务（业务系统&lt;br&gt;应用 / 客户应用）" style="rounded=1;whiteSpace=wrap;html=1;fillColor=#dae8fc;gradientColor=#7ea6e0;strokeColor=#6c8ebf;" vertex="1" parent="1">
          <mxGeometry x="760" y="290" width="120" height="60" as="geometry" />
        </mxCell>
        <mxCell id="cIi6qRAgpGbRA1p_nFkp-28" value="预警" style="rounded=1;whiteSpace=wrap;html=1;" vertex="1" parent="1">
          <mxGeometry x="760" y="410" width="120" height="60" as="geometry" />
        </mxCell>
        <mxCell id="cIi6qRAgpGbRA1p_nFkp-29" value="多维分析" style="rounded=1;whiteSpace=wrap;html=1;" vertex="1" parent="1">
          <mxGeometry x="760" y="530" width="120" height="60" as="geometry" />
        </mxCell>
      </root>
    </mxGraphModel>
  </diagram>
</mxfile>
